# Blender v3.2.0 OBJ File: 'ChessSet.blend'
# www.blender.org
mtllib Rook.mtl
o Rook
v 0.223929 0.000000 -0.387857
v -0.223929 0.000000 -0.387857
v 0.223929 0.092069 -0.387857
v -0.223929 0.092069 -0.387857
v 0.208787 0.153293 -0.361629
v -0.208787 0.153293 -0.361629
v 0.183369 0.236955 -0.317604
v -0.183369 0.236955 -0.317604
v 0.168222 0.289756 -0.291370
v -0.168222 0.289756 -0.291370
v 0.128106 0.318537 -0.221886
v -0.128106 0.318537 -0.221886
v 0.169550 0.184300 -0.293669
v -0.169550 0.184300 -0.293669
v -0.108225 0.969821 -0.187451
v 0.108225 0.969821 -0.187451
v -0.159859 1.031571 -0.276884
v 0.159859 1.031571 -0.276884
v -0.159859 1.258713 -0.276884
v 0.159859 1.258713 -0.276884
v -0.107948 1.258713 -0.186972
v 0.107948 1.258713 -0.186972
v -0.107948 1.168806 -0.186972
v 0.107948 1.168806 -0.186972
v -0.107948 1.315554 -0.186972
v -0.159859 1.315554 -0.276884
v 0.159859 1.315554 -0.276884
v 0.107948 1.315554 -0.186972
v 0.209187 1.258713 -0.191447
v 0.270391 1.258713 -0.085438
v 0.257402 1.208662 -0.107936
v 0.222176 1.208662 -0.168948
v -0.061205 1.258713 -0.276884
v 0.061205 1.258713 -0.276884
v 0.035226 1.208662 -0.276884
v -0.035226 1.208662 -0.276884
v -0.270391 1.258713 -0.085437
v -0.209187 1.258713 -0.191447
v -0.222176 1.208662 -0.168948
v -0.257402 1.208662 -0.107936
v 0.192525 1.258713 -0.040481
v 0.131320 1.258713 -0.146491
v 0.138408 1.219544 -0.134214
v 0.185437 1.219544 -0.052757
v 0.061205 1.258713 -0.186972
v -0.061205 1.258713 -0.186972
v -0.047029 1.219544 -0.186972
v 0.047029 1.219544 -0.186972
v -0.131320 1.258713 -0.146491
v -0.192525 1.258713 -0.040481
v -0.185437 1.219544 -0.052757
v -0.138408 1.219544 -0.134214
v 0.209187 1.315554 -0.191447
v 0.131320 1.315554 -0.146491
v 0.192525 1.315554 -0.040481
v 0.270391 1.315554 -0.085438
v -0.270391 1.315554 -0.085437
v -0.192525 1.315554 -0.040481
v -0.131320 1.315554 -0.146491
v -0.209187 1.315554 -0.191447
v -0.061205 1.315554 -0.276884
v -0.061205 1.315554 -0.186972
v 0.061205 1.315554 -0.186972
v 0.061205 1.315554 -0.276884
v -0.108225 0.854609 -0.187451
v 0.108225 0.854609 -0.187451
v -0.137902 0.912215 -0.238853
v 0.137902 0.912215 -0.238853
v -0.447859 -0.000000 -0.000000
v 0.447859 0.000000 0.000000
v 0.223929 -0.000000 0.387857
v -0.223929 -0.000000 0.387857
v -0.447859 0.092069 0.000000
v 0.447859 0.092069 0.000000
v 0.223929 0.092069 0.387857
v -0.223929 0.092069 0.387857
v -0.417573 0.153292 0.000000
v 0.417573 0.153293 0.000000
v 0.208787 0.153293 0.361629
v -0.208787 0.153292 0.361629
v -0.366737 0.236955 0.000000
v 0.366737 0.236955 0.000000
v 0.183369 0.236955 0.317604
v -0.183369 0.236955 0.317604
v -0.336445 0.289756 0.000000
v 0.336445 0.289757 0.000000
v 0.168222 0.289756 0.291370
v -0.168222 0.289756 0.291370
v -0.256211 0.318537 0.000000
v 0.256211 0.318537 0.000000
v 0.128106 0.318537 0.221886
v -0.128106 0.318537 0.221886
v 0.339100 0.184300 0.000000
v 0.169550 0.184300 0.293669
v -0.169550 0.184300 0.293669
v -0.339100 0.184300 0.000000
v -0.108225 0.969821 0.187451
v 0.108225 0.969821 0.187451
v 0.216449 0.969821 0.000000
v -0.216449 0.969821 0.000000
v 0.000000 0.000000 0.000000
v -0.159859 1.031571 0.276885
v 0.159859 1.031571 0.276885
v 0.319719 1.031571 0.000000
v -0.319719 1.031571 0.000000
v -0.159859 1.258713 0.276885
v 0.159859 1.258713 0.276885
v 0.319719 1.258713 0.000000
v -0.319719 1.258713 0.000000
v -0.107948 1.258713 0.186972
v 0.107948 1.258713 0.186972
v 0.215896 1.258713 0.000000
v -0.215897 1.258713 0.000000
v -0.107948 1.168806 0.186972
v 0.107948 1.168806 0.186972
v 0.215896 1.168806 0.000000
v -0.215897 1.168806 0.000000
v 0.215896 1.315554 0.000000
v 0.319719 1.315554 0.000000
v -0.319719 1.315554 0.000000
v -0.215897 1.315554 0.000000
v -0.107948 1.315554 0.186972
v -0.159859 1.315554 0.276885
v 0.159859 1.315554 0.276885
v 0.107948 1.315554 0.186972
v 0.209187 1.258713 0.191447
v 0.270391 1.258713 0.085438
v 0.257402 1.208662 0.107936
v 0.222176 1.208662 0.168949
v -0.061205 1.258713 0.276885
v 0.061205 1.258713 0.276885
v 0.035226 1.208662 0.276885
v -0.035226 1.208662 0.276885
v -0.270391 1.258713 0.085438
v -0.209187 1.258713 0.191447
v -0.222176 1.208662 0.168949
v -0.257402 1.208662 0.107936
v 0.192525 1.258713 0.040481
v 0.131320 1.258713 0.146491
v 0.138408 1.219544 0.134214
v 0.185437 1.219544 0.052758
v 0.061205 1.258713 0.186972
v -0.061205 1.258713 0.186972
v -0.047029 1.219544 0.186972
v 0.047029 1.219544 0.186972
v -0.131320 1.258713 0.146491
v -0.192525 1.258713 0.040481
v -0.185437 1.219544 0.052757
v -0.138408 1.219544 0.134214
v 0.209187 1.315554 0.191447
v 0.131320 1.315554 0.146491
v 0.192525 1.315554 0.040481
v 0.270391 1.315554 0.085438
v -0.270391 1.315554 0.085438
v -0.192525 1.315554 0.040481
v -0.131320 1.315554 0.146491
v -0.209187 1.315554 0.191447
v -0.061205 1.315554 0.276885
v -0.061205 1.315554 0.186972
v 0.061205 1.315554 0.186972
v 0.061205 1.315554 0.276885
v -0.216449 0.854608 0.000000
v 0.216449 0.854609 0.000000
v -0.108225 0.854609 0.187451
v 0.108225 0.854609 0.187451
v 0.275804 0.912215 0.000000
v -0.275804 0.912215 0.000000
v -0.137902 0.912215 0.238853
v 0.137902 0.912215 0.238853
v -0.000000 1.168806 0.000000
vt 0.323903 0.178470
vt 0.154094 0.364485
vt 0.124290 0.323449
vt 0.124289 0.323450
vt 0.353706 0.219506
vt 0.154093 0.364486
vt 0.124289 0.323450
vt 0.353706 0.219506
vt 0.154093 0.364486
vt 0.353707 0.219506
vt 0.182404 0.389269
vt 0.368518 0.254094
vt 0.182403 0.389270
vt 0.368518 0.254094
vt 0.182404 0.389270
vt 0.224074 0.409862
vt 0.400095 0.321396
vt 0.236639 0.440115
vt 0.375211 0.300090
vt 0.236638 0.440116
vt 0.224073 0.409863
vt 0.375212 0.300090
vt 0.236638 0.440115
vt 0.224073 0.409862
vt 0.262476 0.461490
vt 0.400094 0.321396
vt 0.262475 0.461491
vt 0.412430 0.352578
vt 0.262475 0.461491
vt 0.418897 0.399085
vt 0.304702 0.482025
vt 0.418896 0.399085
vt 0.304701 0.482025
vt 0.304702 0.482025
vt 0.368519 0.254094
vt 0.633915 0.713765
vt 0.499222 0.759030
vt 0.622149 0.669747
vt 0.622149 0.669747
vt 0.537442 0.783834
vt 0.499222 0.759030
vt 0.633914 0.713765
vt 0.499222 0.759030
vt 0.622149 0.669747
vt 0.098541 0.078089
vt 0.323901 0.178471
vt 0.323902 0.178470
vt 0.692110 0.745490
vt 0.549610 0.848988
vt 0.549610 0.848988
vt 0.537442 0.783834
vt 0.549610 0.848988
vt 0.537442 0.783834
vt 0.667111 0.918291
vt 0.641540 0.975561
vt 0.623140 0.950227
vt 0.516724 0.139201
vt 0.615875 0.018634
vt 0.615875 0.139201
vt 0.875522 0.139201
vt 0.974672 0.018633
vt 0.974672 0.139201
vt 0.623140 0.950227
vt 0.685511 0.943625
vt 0.641540 0.975561
vt 0.662487 0.887572
vt 0.623140 0.950227
vt 0.693888 0.864766
vt 0.765640 0.846728
vt 0.721669 0.878665
vt 0.662487 0.887573
vt 0.662487 0.887573
vt 0.144830 0.692081
vt 0.209932 0.555118
vt 0.253205 0.623630
vt 0.389670 0.839686
vt 0.316881 0.964480
vt 0.281295 0.908138
vt 0.845454 0.222285
vt 0.974672 0.139201
vt 0.974672 0.329908
vt 0.845455 0.222286
vt 0.974673 0.139202
vt 0.974673 0.329909
vt 0.693888 0.864766
vt 0.765640 0.846728
vt 0.721669 0.878664
vt 0.693888 0.864766
vt 0.765640 0.846728
vt 0.721669 0.878665
vt 0.875522 0.139202
vt 0.974673 0.018634
vt 0.692110 0.745490
vt 0.346396 0.771174
vt 0.238021 0.839626
vt 0.845453 0.222285
vt 0.974673 0.329908
vt 0.516725 0.329908
vt 0.516724 0.329908
vt 0.645943 0.222286
vt 0.516724 0.139201
vt 0.645942 0.222285
vt 0.516724 0.329908
vt 0.516724 0.139201
vt 0.645943 0.222285
vt 0.667111 0.918291
vt 0.667111 0.918291
vt 0.615874 0.139201
vt 0.875522 0.139201
vt 0.615874 0.139201
vt 0.238022 0.839626
vt 0.253205 0.623630
vt 0.346397 0.771174
vt 0.238021 0.839626
vt 0.253205 0.623630
vt 0.346396 0.771174
vt 0.209932 0.555118
vt 0.065970 0.567227
vt 0.134825 0.436205
vt 0.209932 0.555118
vt 0.065970 0.567227
vt 0.134825 0.436205
vt 0.389670 0.839687
vt 0.316881 0.964480
vt 0.281295 0.908138
vt 0.065970 0.567227
vt 0.134825 0.436205
vt 0.389670 0.839687
vt 0.316882 0.964480
vt 0.281295 0.908138
vt 0.615874 0.018633
vt 0.740070 0.903999
vt 0.144830 0.692081
vt 0.875522 0.018633
vt 0.974672 0.018633
vt 0.641540 0.975561
vt 0.516724 0.018633
vt 0.615874 0.018633
vt 0.740069 0.903999
vt 0.144830 0.692081
vt 0.740070 0.903999
vt 0.583929 0.644943
vt 0.418896 0.399085
vt 0.487456 0.715012
vt 0.583929 0.644943
vt 0.487456 0.715012
vt 0.583929 0.644943
vt 0.487456 0.715011
vt 0.745698 0.726502
vt 0.154094 0.364485
vt 0.124290 0.323449
vt 0.124289 0.323450
vt 0.353706 0.219506
vt 0.323901 0.178471
vt 0.353706 0.219506
vt 0.323902 0.178470
vt 0.182404 0.389269
vt 0.154093 0.364486
vt 0.368518 0.254094
vt 0.368518 0.254094
vt 0.224074 0.409862
vt 0.375213 0.300089
vt 0.236638 0.440116
vt 0.375211 0.300090
vt 0.224073 0.409863
vt 0.375212 0.300090
vt 0.262476 0.461490
vt 0.236639 0.440115
vt 0.262475 0.461491
vt 0.400094 0.321396
vt 0.412430 0.352578
vt 0.400095 0.321396
vt 0.412431 0.352577
vt 0.418896 0.399085
vt 0.412430 0.352578
vt 0.182403 0.389270
vt 0.499222 0.759030
vt 0.622149 0.669747
vt 0.537442 0.783834
vt 0.633915 0.713766
vt 0.633914 0.713765
vt 0.622149 0.669747
vt 0.692110 0.745490
vt 0.549610 0.848988
vt 0.537442 0.783834
vt 0.667111 0.918291
vt 0.615875 0.018634
vt 0.516724 0.139201
vt 0.615875 0.139201
vt 0.974672 0.018633
vt 0.875522 0.139201
vt 0.974672 0.139201
vt 0.623140 0.950227
vt 0.685511 0.943625
vt 0.667111 0.918291
vt 0.623140 0.950227
vt 0.662487 0.887572
vt 0.549610 0.848988
vt 0.765640 0.846728
vt 0.693888 0.864766
vt 0.721669 0.878665
vt 0.662487 0.887573
vt 0.662487 0.887573
vt 0.209932 0.555118
vt 0.144830 0.692081
vt 0.253205 0.623630
vt 0.389670 0.839686
vt 0.464776 0.958599
vt 0.974672 0.139201
vt 0.845454 0.222285
vt 0.974672 0.329908
vt 0.845455 0.222286
vt 0.765640 0.846728
vt 0.693888 0.864766
vt 0.721669 0.878664
vt 0.693888 0.864766
vt 0.721669 0.878665
vt 0.875522 0.139202
vt 0.692110 0.745490
vt 0.692110 0.745490
vt 0.281295 0.908138
vt 0.346396 0.771174
vt 0.238021 0.839626
vt 0.845453 0.222285
vt 0.974673 0.329908
vt 0.516725 0.329908
vt 0.645943 0.222286
vt 0.516724 0.329908
vt 0.645943 0.222285
vt 0.645942 0.222285
vt 0.615874 0.139201
vt 0.516724 0.139201
vt 0.615874 0.139201
vt 0.667111 0.918291
vt 0.875522 0.139201
vt 0.253205 0.623630
vt 0.238022 0.839626
vt 0.346397 0.771174
vt 0.253205 0.623630
vt 0.238021 0.839626
vt 0.346396 0.771174
vt 0.209932 0.555118
vt 0.065970 0.567227
vt 0.209932 0.555118
vt 0.134825 0.436205
vt 0.389670 0.839687
vt 0.316881 0.964480
vt 0.464777 0.958599
vt 0.065970 0.567227
vt 0.134825 0.436205
vt 0.389670 0.839687
vt 0.316882 0.964480
vt 0.464777 0.958599
vt 0.615874 0.018633
vt 0.740070 0.903999
vt 0.281295 0.908138
vt 0.144830 0.692081
vt 0.875522 0.018633
vt 0.641540 0.975561
vt 0.516724 0.018633
vt 0.740069 0.903999
vt 0.281295 0.908138
vt 0.144830 0.692081
vt 0.740070 0.903999
vt 0.583929 0.644943
vt 0.418896 0.399085
vt 0.487456 0.715012
vt 0.583929 0.644943
vt 0.304702 0.482025
vt 0.487456 0.715011
vt 0.400095 0.321396
vt 0.412430 0.352578
vt 0.633915 0.713766
vt 0.685511 0.943625
vt 0.516724 0.018634
vt 0.875522 0.018633
vt 0.101557 0.623569
vt 0.875522 0.018634
vt 0.101557 0.623569
vt 0.101557 0.623569
vt 0.464777 0.958599
vt 0.464777 0.958599
vt 0.516724 0.018633
vt 0.784040 0.872062
vt 0.685511 0.943625
vt 0.784040 0.872063
vt 0.784041 0.872063
vt 0.304701 0.482025
vt 0.499222 0.759030
vt 0.685511 0.943625
vt 0.516724 0.018634
vt 0.875522 0.018633
vt 0.641540 0.975561
vt 0.101557 0.623569
vt 0.875522 0.018634
vt 0.101557 0.623569
vt 0.101557 0.623569
vt 0.784040 0.872062
vt 0.974672 0.018633
vt 0.685511 0.943625
vt 0.615874 0.018633
vt 0.784041 0.872063
vn -0.8660 0.0000 -0.5000
vn 0.0000 0.0000 -1.0000
vn 0.8660 0.0000 -0.5000
vn -0.7961 0.3938 -0.4596
vn -0.0000 0.3938 -0.9192
vn 0.7961 0.3938 -0.4596
vn -0.7884 -0.4138 -0.4552
vn 0.0000 -0.4138 -0.9104
vn 0.7884 -0.4138 -0.4552
vn -0.7756 0.4450 -0.4478
vn 0.0000 0.4450 -0.8956
vn 0.7756 0.4450 -0.4478
vn -0.3314 0.9239 -0.1913
vn 0.0000 0.9239 -0.3827
vn 0.3314 0.9239 -0.1913
vn 0.3595 0.9098 -0.2075
vn 0.0000 0.9098 -0.4151
vn -0.3595 0.9098 -0.2075
vn -0.6462 0.6658 -0.3731
vn 0.0000 0.6658 -0.7461
vn 0.6462 0.6658 -0.3731
vn 0.0000 -1.0000 -0.0000
vn 0.0000 -0.8229 -0.5682
vn -0.4921 -0.8229 -0.2841
vn 0.4921 -0.8229 -0.2841
vn 0.8660 0.0000 0.5000
vn -0.8660 0.0000 0.5000
vn -0.5000 0.0000 0.8660
vn 0.0000 1.0000 -0.0000
vn 0.0000 -0.0000 1.0000
vn 0.5000 0.0000 -0.8660
vn 1.0000 0.0000 -0.0000
vn -1.0000 0.0000 0.0000
vn 0.5000 0.0000 0.8660
vn -0.5000 0.0000 -0.8660
vn 0.8642 0.0641 -0.4990
vn 0.0000 0.0641 -0.9979
vn -0.8642 0.0641 -0.4990
vn 0.6462 -0.6658 -0.3731
vn -0.0000 -0.6658 -0.7461
vn -0.6462 -0.6658 -0.3731
vn -0.7961 0.3938 0.4596
vn 0.0000 0.3938 0.9192
vn 0.7961 0.3938 0.4596
vn -0.7884 -0.4138 0.4552
vn 0.0000 -0.4138 0.9104
vn 0.7884 -0.4138 0.4552
vn -0.7756 0.4450 0.4478
vn 0.0000 0.4450 0.8956
vn 0.7756 0.4450 0.4478
vn -0.3314 0.9239 0.1913
vn 0.0000 0.9239 0.3827
vn 0.3314 0.9239 0.1913
vn 0.3595 0.9098 0.2075
vn 0.0000 0.9098 0.4151
vn -0.3595 0.9098 0.2075
vn -0.6462 0.6658 0.3731
vn 0.0000 0.6658 0.7461
vn 0.6462 0.6658 0.3731
vn 0.0000 -0.8229 0.5682
vn -0.4921 -0.8229 0.2841
vn 0.4921 -0.8229 0.2841
vn 0.8642 0.0641 0.4990
vn 0.0000 0.0641 0.9979
vn -0.8642 0.0641 0.4990
vn 0.6462 -0.6658 0.3731
vn -0.0000 -0.6658 0.7461
vn -0.6462 -0.6658 0.3731
usemtl Rook
s off
f 69/1/1 4/2/1 2/3/1
f 1/4/2 4/5/2 3/6/2
f 70/7/3 3/8/3 74/9/3
f 73/10/4 6/11/4 4/2/4
f 3/6/5 6/12/5 5/13/5
f 74/9/6 5/14/6 78/15/6
f 14/16/7 81/17/7 8/18/7
f 14/19/8 7/20/8 13/21/8
f 13/22/9 82/23/9 93/24/9
f 81/17/10 10/25/10 8/18/10
f 8/26/11 9/27/11 7/20/11
f 82/23/12 9/28/12 86/29/12
f 10/25/13 89/30/13 12/31/13
f 9/27/14 12/32/14 11/33/14
f 9/28/15 90/34/15 86/29/15
f 78/15/16 13/22/16 93/24/16
f 6/12/17 13/21/17 5/13/17
f 77/35/18 14/16/18 6/11/18
f 100/36/19 67/37/19 167/38/19
f 67/39/20 16/40/20 68/41/20
f 16/42/21 166/43/21 68/44/21
f 69/1/22 2/3/22 101/45/22
f 2/46/22 1/4/22 101/45/22
f 70/7/22 101/45/22 1/47/22
f 16/40/23 17/48/23 18/49/23
f 100/36/24 17/50/24 15/51/24
f 16/42/25 104/52/25 99/53/25
f 30/54/3 119/55/3 108/56/3
f 21/57/26 59/58/26 49/59/26
f 42/60/27 28/61/27 22/62/27
f 19/63/1 60/64/1 26/65/1
f 35/66/2 20/67/2 18/49/2
f 32/68/3 20/69/3 29/70/3
f 39/71/1 19/63/1 17/50/1
f 31/72/3 108/56/3 104/52/3
f 49/73/28 60/74/28 38/75/28
f 57/76/29 121/77/29 58/78/29
f 47/79/30 21/80/30 23/81/30
f 51/82/26 113/83/26 117/84/26
f 36/85/2 19/86/2 33/87/2
f 40/88/1 109/89/1 37/90/1
f 36/85/2 18/49/2 17/48/2
f 50/91/26 121/92/26 113/83/26
f 17/50/1 40/88/1 39/71/1
f 18/93/3 31/72/3 104/52/3
f 37/94/31 58/78/31 50/95/31
f 43/96/27 22/62/27 24/97/27
f 23/98/26 51/82/26 117/84/26
f 24/99/30 47/79/30 23/81/30
f 21/57/26 52/100/26 23/98/26
f 112/101/27 44/102/27 116/103/27
f 44/102/27 24/97/27 116/103/27
f 22/104/30 48/105/30 24/99/30
f 30/54/3 32/68/3 29/70/3
f 34/106/2 36/85/2 33/87/2
f 38/107/1 40/88/1 37/90/1
f 41/108/27 43/96/27 44/102/27
f 46/109/30 48/105/30 45/110/30
f 50/91/26 52/100/26 49/59/26
f 42/111/29 30/112/29 29/113/29
f 50/95/29 38/75/29 37/94/29
f 46/114/29 34/115/29 33/116/29
f 56/117/29 118/118/29 119/119/29
f 64/120/29 28/121/29 27/122/29
f 61/123/29 25/124/29 62/125/29
f 60/74/29 25/126/29 26/127/29
f 53/128/29 28/129/29 54/130/29
f 112/101/27 55/131/27 41/108/27
f 19/86/2 61/132/2 33/87/2
f 33/116/32 62/125/32 46/114/32
f 45/133/33 64/120/33 34/115/33
f 21/80/30 62/134/30 25/135/30
f 34/106/2 27/136/2 20/67/2
f 45/110/30 28/137/30 63/138/30
f 109/89/1 57/139/1 37/90/1
f 29/113/34 54/130/34 42/111/34
f 41/140/35 56/117/35 30/112/35
f 20/69/3 53/141/3 29/70/3
f 66/142/36 90/34/36 11/143/36
f 12/32/37 66/144/37 11/33/37
f 162/145/38 12/31/38 89/30/38
f 66/142/39 166/43/39 163/146/39
f 67/39/40 66/144/40 65/147/40
f 167/38/41 65/148/41 162/145/41
f 117/84/29 170/149/29 23/98/29
f 23/81/29 170/149/29 24/99/29
f 24/97/29 170/149/29 116/103/29
f 76/150/27 69/1/27 72/151/27
f 71/152/30 76/153/30 72/154/30
f 70/7/26 75/155/26 71/156/26
f 80/157/42 73/10/42 76/150/42
f 75/158/43 80/159/43 76/153/43
f 74/9/44 79/160/44 75/155/44
f 95/161/45 81/17/45 96/162/45
f 83/163/46 95/164/46 94/165/46
f 82/23/47 94/166/47 93/24/47
f 88/167/48 81/17/48 84/168/48
f 87/169/49 84/170/49 83/163/49
f 82/23/50 87/171/50 83/172/50
f 88/167/51 89/30/51 85/173/51
f 87/169/52 92/174/52 88/175/52
f 90/34/53 87/171/53 86/29/53
f 78/15/54 94/166/54 79/160/54
f 94/165/55 80/159/55 79/176/55
f 95/161/56 77/35/56 80/157/56
f 168/177/57 100/36/57 167/38/57
f 168/178/58 98/179/58 97/180/58
f 166/43/59 98/181/59 169/182/59
f 69/1/22 101/45/22 72/151/22
f 72/154/22 101/45/22 71/152/22
f 70/7/22 71/156/22 101/45/22
f 98/179/60 102/183/60 97/180/60
f 102/184/61 100/36/61 97/185/61
f 104/52/62 98/181/62 99/53/62
f 119/55/26 127/186/26 108/56/26
f 156/187/3 110/188/3 146/189/3
f 125/190/1 139/191/1 111/192/1
f 106/193/27 157/194/27 135/195/27
f 107/196/30 132/197/30 103/198/30
f 107/199/26 129/200/26 126/201/26
f 136/202/27 106/193/27 135/195/27
f 108/56/26 128/203/26 104/52/26
f 157/204/35 146/205/35 135/206/35
f 154/207/29 121/77/29 120/208/29
f 110/209/2 144/210/2 114/211/2
f 113/83/3 148/212/3 117/84/3
f 106/213/30 133/214/30 130/215/30
f 109/89/27 137/216/27 134/217/27
f 103/198/30 133/214/30 102/183/30
f 121/92/3 147/218/3 113/83/3
f 102/184/27 137/216/27 105/219/27
f 103/220/26 128/203/26 129/200/26
f 155/221/34 134/222/34 147/223/34
f 111/192/1 140/224/1 115/225/1
f 114/226/3 148/212/3 149/227/3
f 115/228/2 144/210/2 145/229/2
f 110/188/3 149/227/3 146/189/3
f 112/101/1 141/230/1 138/231/1
f 115/225/1 141/230/1 116/103/1
f 111/232/2 145/229/2 142/233/2
f 129/200/26 127/186/26 126/201/26
f 133/214/30 131/234/30 130/215/30
f 137/216/27 135/195/27 134/217/27
f 138/231/1 140/224/1 139/191/1
f 145/229/2 143/235/2 142/233/2
f 149/227/3 147/218/3 146/189/3
f 127/236/29 139/237/29 126/238/29
f 135/206/29 147/223/29 134/222/29
f 131/239/29 143/240/29 130/241/29
f 118/118/29 153/242/29 119/119/29
f 125/243/29 161/244/29 124/245/29
f 158/246/29 122/247/29 123/248/29
f 122/249/29 157/204/29 123/250/29
f 150/251/29 125/252/29 124/253/29
f 152/254/1 112/101/1 138/231/1
f 158/255/30 106/213/30 130/215/30
f 159/256/32 130/241/32 143/240/32
f 161/244/33 142/257/33 131/239/33
f 110/209/2 159/258/2 143/235/2
f 124/259/30 131/234/30 107/196/30
f 142/233/2 125/260/2 111/232/2
f 154/261/27 109/89/27 134/217/27
f 151/262/31 126/238/31 139/237/31
f 153/242/28 138/263/28 127/236/28
f 150/264/26 107/199/26 126/201/26
f 90/34/63 165/265/63 91/266/63
f 92/174/64 165/267/64 164/268/64
f 92/269/65 162/145/65 89/30/65
f 165/265/66 166/43/66 169/182/66
f 165/267/67 168/178/67 164/268/67
f 164/270/68 167/38/68 162/145/68
f 117/84/29 114/226/29 170/149/29
f 114/211/29 115/228/29 170/149/29
f 115/225/29 116/103/29 170/149/29
f 69/1/1 73/10/1 4/2/1
f 1/4/2 2/46/2 4/5/2
f 70/7/3 1/47/3 3/8/3
f 73/10/4 77/35/4 6/11/4
f 3/6/5 4/5/5 6/12/5
f 74/9/6 3/8/6 5/14/6
f 14/16/7 96/162/7 81/17/7
f 14/19/8 8/26/8 7/20/8
f 13/22/9 7/271/9 82/23/9
f 81/17/10 85/173/10 10/25/10
f 8/26/11 10/272/11 9/27/11
f 82/23/12 7/271/12 9/28/12
f 10/25/13 85/173/13 89/30/13
f 9/27/14 10/272/14 12/32/14
f 9/28/15 11/143/15 90/34/15
f 78/15/16 5/14/16 13/22/16
f 6/12/17 14/19/17 13/21/17
f 77/35/18 96/162/18 14/16/18
f 100/36/19 15/51/19 67/37/19
f 67/39/20 15/273/20 16/40/20
f 16/42/21 99/53/21 166/43/21
f 16/40/23 15/273/23 17/48/23
f 100/36/24 105/219/24 17/50/24
f 16/42/25 18/93/25 104/52/25
f 30/54/3 56/274/3 119/55/3
f 21/57/26 25/275/26 59/58/26
f 42/60/27 54/276/27 28/61/27
f 19/63/1 38/107/1 60/64/1
f 35/66/2 34/106/2 20/67/2
f 32/68/3 18/93/3 20/69/3
f 39/71/1 38/107/1 19/63/1
f 31/72/3 30/54/3 108/56/3
f 49/73/28 59/277/28 60/74/28
f 57/76/29 120/208/29 121/77/29
f 47/79/30 46/109/30 21/80/30
f 51/82/26 50/91/26 113/83/26
f 36/85/2 17/48/2 19/86/2
f 40/88/1 105/219/1 109/89/1
f 36/85/2 35/66/2 18/49/2
f 50/91/26 58/278/26 121/92/26
f 17/50/1 105/219/1 40/88/1
f 18/93/3 32/68/3 31/72/3
f 37/94/31 57/76/31 58/78/31
f 43/96/27 42/60/27 22/62/27
f 23/98/26 52/100/26 51/82/26
f 24/99/30 48/105/30 47/79/30
f 21/57/26 49/59/26 52/100/26
f 112/101/27 41/108/27 44/102/27
f 44/102/27 43/96/27 24/97/27
f 22/104/30 45/110/30 48/105/30
f 30/54/3 31/72/3 32/68/3
f 34/106/2 35/66/2 36/85/2
f 38/107/1 39/71/1 40/88/1
f 41/108/27 42/60/27 43/96/27
f 46/109/30 47/79/30 48/105/30
f 50/91/26 51/82/26 52/100/26
f 42/111/29 41/140/29 30/112/29
f 50/95/29 49/73/29 38/75/29
f 46/114/29 45/133/29 34/115/29
f 56/117/29 55/279/29 118/118/29
f 64/120/29 63/280/29 28/121/29
f 61/123/29 26/281/29 25/124/29
f 60/74/29 59/277/29 25/126/29
f 53/128/29 27/282/29 28/129/29
f 112/101/27 118/283/27 55/131/27
f 19/86/2 26/284/2 61/132/2
f 33/116/32 61/123/32 62/125/32
f 45/133/33 63/280/33 64/120/33
f 21/80/30 46/109/30 62/134/30
f 34/106/2 64/285/2 27/136/2
f 45/110/30 22/104/30 28/137/30
f 109/89/1 120/286/1 57/139/1
f 29/113/34 53/128/34 54/130/34
f 41/140/35 55/279/35 56/117/35
f 20/69/3 27/287/3 53/141/3
f 66/142/36 163/146/36 90/34/36
f 12/32/37 65/147/37 66/144/37
f 162/145/38 65/148/38 12/31/38
f 66/142/39 68/44/39 166/43/39
f 67/39/40 68/41/40 66/144/40
f 167/38/41 67/37/41 65/148/41
f 76/150/27 73/10/27 69/1/27
f 71/152/30 75/158/30 76/153/30
f 70/7/26 74/9/26 75/155/26
f 80/157/42 77/35/42 73/10/42
f 75/158/43 79/176/43 80/159/43
f 74/9/44 78/15/44 79/160/44
f 95/161/45 84/168/45 81/17/45
f 83/163/46 84/170/46 95/164/46
f 82/23/47 83/172/47 94/166/47
f 88/167/48 85/173/48 81/17/48
f 87/169/49 88/175/49 84/170/49
f 82/23/50 86/29/50 87/171/50
f 88/167/51 92/269/51 89/30/51
f 87/169/52 91/288/52 92/174/52
f 90/34/53 91/266/53 87/171/53
f 78/15/54 93/24/54 94/166/54
f 94/165/55 95/164/55 80/159/55
f 95/161/56 96/162/56 77/35/56
f 168/177/57 97/185/57 100/36/57
f 168/178/58 169/289/58 98/179/58
f 166/43/59 99/53/59 98/181/59
f 98/179/60 103/198/60 102/183/60
f 102/184/61 105/219/61 100/36/61
f 104/52/62 103/220/62 98/181/62
f 119/55/26 153/290/26 127/186/26
f 156/187/3 122/291/3 110/188/3
f 125/190/1 151/292/1 139/191/1
f 106/193/27 123/293/27 157/194/27
f 107/196/30 131/234/30 132/197/30
f 107/199/26 103/220/26 129/200/26
f 136/202/27 102/184/27 106/193/27
f 108/56/26 127/186/26 128/203/26
f 157/204/35 156/294/35 146/205/35
f 154/207/29 155/221/29 121/77/29
f 110/209/2 143/235/2 144/210/2
f 113/83/3 147/218/3 148/212/3
f 106/213/30 102/183/30 133/214/30
f 109/89/27 105/219/27 137/216/27
f 103/198/30 132/197/30 133/214/30
f 121/92/3 155/295/3 147/218/3
f 102/184/27 136/202/27 137/216/27
f 103/220/26 104/52/26 128/203/26
f 155/221/34 154/207/34 134/222/34
f 111/192/1 139/191/1 140/224/1
f 114/226/3 117/84/3 148/212/3
f 115/228/2 114/211/2 144/210/2
f 110/188/3 114/226/3 149/227/3
f 112/101/1 116/103/1 141/230/1
f 115/225/1 140/224/1 141/230/1
f 111/232/2 115/228/2 145/229/2
f 129/200/26 128/203/26 127/186/26
f 133/214/30 132/197/30 131/234/30
f 137/216/27 136/202/27 135/195/27
f 138/231/1 141/230/1 140/224/1
f 145/229/2 144/210/2 143/235/2
f 149/227/3 148/212/3 147/218/3
f 127/236/29 138/263/29 139/237/29
f 135/206/29 146/205/29 147/223/29
f 131/239/29 142/257/29 143/240/29
f 118/118/29 152/296/29 153/242/29
f 125/243/29 160/297/29 161/244/29
f 158/246/29 159/256/29 122/247/29
f 122/249/29 156/294/29 157/204/29
f 150/251/29 151/262/29 125/252/29
f 152/254/1 118/283/1 112/101/1
f 158/255/30 123/298/30 106/213/30
f 159/256/32 158/246/32 130/241/32
f 161/244/33 160/297/33 142/257/33
f 110/209/2 122/299/2 159/258/2
f 124/259/30 161/300/30 131/234/30
f 142/233/2 160/301/2 125/260/2
f 154/261/27 120/286/27 109/89/27
f 151/262/31 150/251/31 126/238/31
f 153/242/28 152/296/28 138/263/28
f 150/264/26 124/302/26 107/199/26
f 90/34/63 163/146/63 165/265/63
f 92/174/64 91/288/64 165/267/64
f 92/269/65 164/270/65 162/145/65
f 165/265/66 163/146/66 166/43/66
f 165/267/67 169/289/67 168/178/67
f 164/270/68 168/177/68 167/38/68
